<svg xmlns="http://www.w3.org/2000/svg" viewBox="0 0 207.58 320.48"><defs><style>.cls-1{fill:#fff;}</style></defs><title>about</title><g id="Layer_2" data-name="Layer 2"><g id="about"><path class="cls-1" d="M192.18,160.39,103.89,0,62,77.66,83.85,130A5.8,5.8,0,0,1,91,133.24l13.24,31.7,20-8.34,14.63-6.67s20.92,50,28.45,68.07-6.57,65.69-22.41,81.83c-23.45-1.48-66.09-22.68-74-41.54L42.5,190.2l15-5.71,20-8.36-13.25-31.7A5.8,5.8,0,0,1,67,137L50.82,98.29l-33.6,62.22a103,103,0,0,0,155.44,132.8A107.1,107.1,0,0,0,207.58,215C207.58,192.6,193.07,161.91,192.18,160.39Z"/></g></g></svg>