<?xml version="1.0" encoding="utf-8"?>
<!-- Generator: Adobe Illustrator 21.0.0, SVG Export Plug-In . SVG Version: 6.00 Build 0)  -->
<svg version="1.1" id="Layer_1" xmlns="http://www.w3.org/2000/svg" xmlns:xlink="http://www.w3.org/1999/xlink" x="0px" y="0px"
	 viewBox="0 0 468 288" enable-background="new 0 0 468 288" xml:space="preserve">
<g>
	<g>
		<g>
			<path fill="#003767" d="M124.43,92.064h-18.521v19.381h13.352v10.119h-13.352v22.073h18.521v10.121H95.036V81.943h29.394V92.064z
				"/>
			<path fill="#003767" d="M143.7,137.931l-2.476,15.828h-10.66l11.736-71.816h13.996l12.489,71.816h-11.089l-2.478-15.828H143.7z
				 M149.301,99.172l-4.094,28.638h8.398L149.301,99.172z"/>
			<path fill="#003767" d="M186.98,153.759h-10.873V81.943h15.073c3.445,0,6.354,0.361,8.721,1.078
				c2.37,0.719,4.289,1.92,5.762,3.604c1.468,1.689,2.529,3.861,3.176,6.515c0.645,2.659,0.968,5.924,0.968,9.799
				s-0.323,7.161-0.966,9.852c-0.641,2.692-1.696,4.882-3.16,6.566c-1.462,1.688-3.376,2.891-5.729,3.607
				c-2.358,0.72-5.254,1.078-8.684,1.078h-4.287V153.759z M190.366,113.922c1.694,0,3.104-0.16,4.23-0.48
				c1.127-0.32,2.009-0.888,2.646-1.706c0.634-0.817,1.075-1.937,1.32-3.355c0.246-1.421,0.371-3.236,0.371-5.44
				c0-2.131-0.125-3.908-0.371-5.327c-0.245-1.425-0.686-2.544-1.32-3.362c-0.637-0.815-1.519-1.385-2.646-1.705
				s-2.536-0.48-4.23-0.48h-3.386v21.857H190.366z"/>
			<path fill="#003767" d="M251.365,81.839v48.447c0,2.655-0.073,4.936-0.215,6.837c-0.146,1.903-0.377,3.555-0.7,4.955
				c-0.323,1.398-0.755,2.642-1.293,3.729c-0.538,1.086-1.236,2.172-2.099,3.261c-1.436,1.814-3.268,3.23-5.491,4.244
				c-2.227,1.015-4.594,1.524-7.105,1.524c-2.513,0-4.862-0.51-7.052-1.524c-2.191-1.015-4.003-2.43-5.438-4.244
				c-0.861-1.089-1.58-2.175-2.154-3.261c-0.574-1.087-1.023-2.348-1.344-3.782c-0.326-1.438-0.539-3.086-0.646-4.953
				c-0.108-1.866-0.161-4.13-0.161-6.785V81.839h10.872v47.264c0,3.591,0.057,6.245,0.161,7.969
				c0.108,1.722,0.307,2.979,0.593,3.767c0.984,2.583,2.746,3.877,5.279,3.877c2.885,0,4.715-1.651,5.488-4.954
				c0.284-1.218,0.432-4.771,0.432-10.658V81.839H251.365z"/>
			<path fill="#003767" d="M354.505,105.848c0-2.081-0.017-3.912-0.056-5.492c-0.034-1.578-0.09-2.8-0.16-3.66
				c-0.213-1.722-0.844-3.104-1.884-4.144c-1.042-1.042-2.352-1.562-3.928-1.562c-2.946,0-4.812,1.646-5.6,4.933
				c-0.288,1.216-0.432,4.756-0.432,10.618v22.731c0,3.576,0.054,6.203,0.163,7.882c0.105,1.682,0.304,2.914,0.592,3.7
				c1.004,2.575,2.763,3.861,5.276,3.861c1.576,0,2.886-0.539,3.928-1.615c1.04-1.075,1.634-2.547,1.776-4.414
				c0.145-1.005,0.233-2.585,0.267-4.737c0.039-2.153,0.056-4.056,0.056-5.707h10.874v4.737c0,1.651-0.037,3.106-0.106,4.359
				c-0.072,1.258-0.2,2.408-0.377,3.446c-0.183,1.041-0.432,1.994-0.755,2.855c-0.32,0.861-0.735,1.765-1.237,2.707
				c-1.365,2.688-3.284,4.771-5.76,6.26c-2.478,1.486-5.331,2.23-8.561,2.23c-2.514,0-4.887-0.485-7.127-1.453
				c-2.24-0.971-4.084-2.387-5.532-4.255c-0.873-1.076-1.596-2.151-2.176-3.229c-0.579-1.077-1.031-2.315-1.359-3.715
				c-0.325-1.399-0.545-3.068-0.654-5.007c-0.107-1.936-0.161-4.307-0.161-7.105v-24.332c0-2.8,0.054-5.184,0.161-7.16
				c0.109-1.974,0.329-3.661,0.654-5.061c0.328-1.398,0.78-2.637,1.359-3.714c0.58-1.076,1.303-2.154,2.176-3.23
				c1.448-1.864,3.292-3.283,5.532-4.254c2.24-0.968,4.613-1.452,7.127-1.452c3.159,0,5.977,0.688,8.453,2.069
				c2.475,1.376,4.433,3.335,5.868,5.874c0.932,1.74,1.577,3.487,1.938,5.245c0.359,1.761,0.538,4.219,0.538,7.376v4.415H354.505z"
				/>
		</g>
	</g>
	<g>
		<g>
			<path fill="#003767" d="M53.135,225.845c-1.073,1.271-2.628,1.905-4.664,1.905c-2.146,0-3.723-0.641-4.729-1.922
				c-1.007-1.28-1.511-3.016-1.511-5.206v-15.83h2.2v15.634c0,1.599,0.312,2.896,0.937,3.892c0.624,0.997,1.669,1.494,3.137,1.494
				c1.445,0,2.49-0.486,3.137-1.461c0.646-0.975,0.969-2.271,0.969-3.893v-15.666h2.135v15.732
				C54.744,222.802,54.207,224.575,53.135,225.845z"/>
			<path fill="#003767" d="M65.418,206.73v20.725h-2.135V206.73h-5.32v-1.938h12.645l0.329,1.938H65.418z"/>
			<path fill="#003767" d="M74.286,227.454v-22.662h2.167v22.662H74.286z"/>
			<path fill="#003767" d="M81.576,227.454v-22.662h2.168v20.725h6.864l0.296,1.938H81.576z"/>
			<path fill="#003767" d="M94.354,227.454v-22.662h2.167v22.662H94.354z"/>
			<path fill="#003767" d="M107.523,206.73v20.725h-2.135V206.73h-5.32v-1.938h12.645l0.329,1.938H107.523z"/>
			<path fill="#003767" d="M122.73,218.225v9.23h-2.135v-9.196l-6.044-13.203l2.168-0.427l4.959,11.396l4.927-11.232h2.267
				L122.73,218.225z"/>
			<path fill="#003767" d="M152.847,216.09c0,1.73-0.164,3.312-0.492,4.746c-0.329,1.435-0.805,2.666-1.429,3.695
				c-0.624,1.029-1.402,1.834-2.332,2.414c-0.932,0.58-2.01,0.87-3.235,0.87c-1.227,0-2.305-0.285-3.235-0.854
				c-0.931-0.569-1.708-1.368-2.332-2.398c-0.624-1.028-1.095-2.255-1.412-3.678c-0.317-1.424-0.477-3-0.477-4.729
				c0-1.73,0.165-3.312,0.493-4.746c0.328-1.434,0.805-2.672,1.429-3.712c0.624-1.039,1.406-1.844,2.349-2.414
				c0.94-0.569,2.014-0.854,3.219-0.854c1.226,0,2.304,0.284,3.234,0.854c0.931,0.57,1.708,1.369,2.332,2.397
				c0.624,1.03,1.095,2.256,1.412,3.679C152.688,212.784,152.847,214.36,152.847,216.09z M150.679,216.156
				c0-1.38-0.109-2.666-0.328-3.859c-0.219-1.193-0.548-2.228-0.985-3.105c-0.438-0.875-0.991-1.564-1.658-2.068
				c-0.669-0.504-1.451-0.756-2.349-0.756c-0.92,0-1.708,0.252-2.365,0.756c-0.656,0.504-1.198,1.188-1.625,2.053
				c-0.428,0.865-0.745,1.889-0.953,3.07c-0.208,1.183-0.312,2.464-0.312,3.843c0,1.38,0.104,2.666,0.312,3.859
				c0.208,1.193,0.531,2.229,0.969,3.104c0.438,0.876,0.985,1.566,1.643,2.069c0.657,0.504,1.445,0.756,2.365,0.756
				c0.919,0,1.707-0.252,2.364-0.756c0.657-0.503,1.204-1.188,1.643-2.053c0.438-0.864,0.76-1.889,0.969-3.071
				C150.575,218.816,150.679,217.535,150.679,216.156z"/>
			<path fill="#003767" d="M167.987,211.23c0,2.145-0.668,3.793-2.003,4.942c-1.336,1.149-3.132,1.725-5.387,1.725h-1.511v9.558
				h-2.168v-22.662h4.105c2.255,0,3.98,0.574,5.173,1.724C167.391,207.666,167.987,209.237,167.987,211.23z M165.82,211.295
				c0-1.445-0.395-2.572-1.183-3.383c-0.788-0.81-2.036-1.216-3.744-1.216h-1.807v9.295h1.643c1.773,0,3.064-0.421,3.875-1.264
				C165.414,213.885,165.82,212.74,165.82,211.295z"/>
			<path fill="#003767" d="M171.436,227.454v-22.662h9.82v1.938h-7.652v7.883h6.043l0.329,1.938h-6.372v8.967h7.982v1.938H171.436z"
				/>
			<path fill="#003767" d="M189.533,217.272h-2.069v10.182h-2.168v-22.662h4.139c2.145,0,3.837,0.547,5.074,1.642
				c1.237,1.096,1.855,2.606,1.855,4.533c0,1.599-0.41,2.906-1.232,3.925c-0.821,1.018-1.954,1.713-3.399,2.085l5.912,10.215
				l-2.135,0.492L189.533,217.272z M189.139,215.499c1.708,0,2.977-0.399,3.811-1.199c0.831-0.799,1.248-1.889,1.248-3.268
				c0-1.38-0.406-2.447-1.216-3.202c-0.811-0.756-2.025-1.134-3.646-1.134h-1.872v8.803H189.139z"/>
			<path fill="#003767" d="M212.097,227.651l-2.003-7.555h-6.569l-1.904,7.357h-2.135l6.24-22.794h2.299l6.142,22.531
				L212.097,227.651z M206.81,207.518l-2.792,10.675h5.583L206.81,207.518z"/>
			<path fill="#003767" d="M221.424,206.73v20.725h-2.135V206.73h-5.32v-1.938h12.645l0.329,1.938H221.424z"/>
			<path fill="#003767" d="M243.462,216.09c0,1.73-0.164,3.312-0.492,4.746c-0.329,1.435-0.805,2.666-1.429,3.695
				c-0.624,1.029-1.402,1.834-2.332,2.414c-0.932,0.58-2.01,0.87-3.235,0.87c-1.227,0-2.305-0.285-3.235-0.854
				c-0.931-0.569-1.708-1.368-2.332-2.398c-0.624-1.028-1.095-2.255-1.412-3.678c-0.317-1.424-0.477-3-0.477-4.729
				c0-1.73,0.165-3.312,0.493-4.746c0.328-1.434,0.805-2.672,1.429-3.712c0.624-1.039,1.406-1.844,2.349-2.414
				c0.94-0.569,2.014-0.854,3.219-0.854c1.226,0,2.304,0.284,3.234,0.854c0.931,0.57,1.708,1.369,2.332,2.397
				c0.624,1.03,1.095,2.256,1.412,3.679C243.303,212.784,243.462,214.36,243.462,216.09z M241.294,216.156
				c0-1.38-0.109-2.666-0.328-3.859c-0.219-1.193-0.548-2.228-0.985-3.105c-0.438-0.875-0.991-1.564-1.658-2.068
				c-0.669-0.504-1.451-0.756-2.349-0.756c-0.92,0-1.708,0.252-2.365,0.756c-0.656,0.504-1.198,1.188-1.625,2.053
				c-0.428,0.865-0.745,1.889-0.953,3.07c-0.208,1.183-0.312,2.464-0.312,3.843c0,1.38,0.104,2.666,0.312,3.859
				c0.208,1.193,0.531,2.229,0.969,3.104c0.439,0.876,0.985,1.566,1.643,2.069c0.657,0.504,1.445,0.756,2.365,0.756
				c0.919,0,1.707-0.252,2.364-0.756c0.657-0.503,1.204-1.188,1.643-2.053c0.438-0.864,0.76-1.889,0.969-3.071
				C241.19,218.816,241.294,217.535,241.294,216.156z"/>
			<path fill="#003767" d="M251.771,217.272h-2.069v10.182h-2.168v-22.662h4.139c2.146,0,3.837,0.547,5.074,1.642
				c1.237,1.096,1.855,2.606,1.855,4.533c0,1.599-0.41,2.906-1.232,3.925c-0.821,1.018-1.954,1.713-3.399,2.085l5.912,10.215
				l-2.135,0.492L251.771,217.272z M251.377,215.499c1.708,0,2.978-0.399,3.811-1.199c0.831-0.799,1.248-1.889,1.248-3.268
				c0-1.38-0.406-2.447-1.216-3.202c-0.811-0.756-2.025-1.134-3.645-1.134h-1.872v8.803H251.377z"/>
			<path fill="#003767" d="M272.923,221.969c0,0.854-0.143,1.632-0.427,2.332c-0.285,0.701-0.679,1.304-1.183,1.807
				c-0.504,0.504-1.116,0.893-1.839,1.166c-0.723,0.273-1.533,0.41-2.431,0.41c-0.92,0-1.779-0.109-2.578-0.328
				c-0.8-0.219-1.539-0.525-2.217-0.92l0.328-2.102c0.679,0.438,1.395,0.788,2.151,1.051c0.756,0.263,1.561,0.395,2.414,0.395
				c1.116,0,2.004-0.334,2.66-1.002c0.657-0.668,0.985-1.561,0.985-2.677c0-0.504-0.065-0.969-0.197-1.396
				c-0.131-0.428-0.34-0.854-0.624-1.281c-0.284-0.427-0.656-0.859-1.116-1.298c-0.46-0.438-1.029-0.908-1.708-1.412
				c-0.701-0.525-1.33-1.034-1.889-1.527c-0.559-0.492-1.029-1.001-1.412-1.527c-0.384-0.525-0.679-1.094-0.887-1.707
				c-0.208-0.613-0.312-1.314-0.312-2.103c0-0.766,0.132-1.473,0.395-2.118c0.263-0.645,0.629-1.204,1.101-1.675
				c0.471-0.471,1.034-0.838,1.691-1.101c0.656-0.263,1.368-0.395,2.135-0.395c0.919,0,1.663,0.082,2.233,0.247
				c0.569,0.164,1.116,0.399,1.642,0.706l-0.328,2.135c-0.569-0.372-1.133-0.662-1.691-0.871c-0.559-0.207-1.178-0.312-1.855-0.312
				c-1.008,0-1.79,0.312-2.349,0.937c-0.559,0.624-0.838,1.395-0.838,2.315c0,0.504,0.077,0.963,0.23,1.379
				c0.152,0.416,0.378,0.821,0.673,1.216c0.296,0.393,0.674,0.788,1.134,1.182c0.459,0.395,0.996,0.821,1.609,1.281
				c0.766,0.591,1.434,1.149,2.003,1.675c0.569,0.525,1.04,1.067,1.412,1.626c0.372,0.559,0.646,1.155,0.821,1.79
				C272.835,220.503,272.923,221.203,272.923,221.969z"/>
			<path fill="#003767" d="M276.964,211.196l-1.149-0.263l0.427-6.142h2.496L276.964,211.196z"/>
			<path fill="#003767" d="M298.804,227.29c-0.832,0.35-1.773,0.525-2.824,0.525c-1.205,0-2.277-0.279-3.219-0.838
				c-0.941-0.558-1.735-1.351-2.381-2.381c-0.647-1.029-1.134-2.261-1.462-3.695c-0.328-1.434-0.493-3.016-0.493-4.745
				c0-1.73,0.165-3.312,0.493-4.746c0.328-1.434,0.815-2.672,1.462-3.712c0.645-1.039,1.439-1.844,2.381-2.414
				c0.941-0.569,2.024-0.854,3.251-0.854c1.052,0,1.943,0.147,2.677,0.443c0.733,0.296,1.418,0.695,2.053,1.198l-0.328,2.233
				c-0.788-0.656-1.506-1.138-2.151-1.444c-0.645-0.307-1.407-0.46-2.282-0.46c-0.92,0-1.72,0.252-2.397,0.755
				c-0.68,0.504-1.237,1.188-1.676,2.053c-0.438,0.865-0.761,1.889-0.969,3.071c-0.208,1.183-0.311,2.452-0.311,3.809
				c0,1.38,0.114,2.666,0.345,3.859c0.229,1.193,0.574,2.229,1.034,3.104c0.46,0.876,1.029,1.561,1.708,2.053
				c0.679,0.493,1.467,0.739,2.365,0.739c0.854,0,1.652-0.169,2.397-0.509c0.744-0.34,1.522-0.859,2.332-1.561l0.295,2.135
				C300.402,226.48,299.636,226.939,298.804,227.29z"/>
			<path fill="#003767" d="M318.314,216.09c0,1.73-0.164,3.312-0.492,4.746c-0.329,1.435-0.805,2.666-1.429,3.695
				c-0.624,1.029-1.402,1.834-2.332,2.414c-0.932,0.58-2.01,0.87-3.235,0.87c-1.227,0-2.305-0.285-3.235-0.854
				c-0.931-0.569-1.708-1.368-2.332-2.398c-0.624-1.028-1.095-2.255-1.412-3.678c-0.317-1.424-0.477-3-0.477-4.729
				c0-1.73,0.165-3.312,0.493-4.746c0.328-1.434,0.805-2.672,1.429-3.712c0.624-1.039,1.406-1.844,2.349-2.414
				c0.94-0.569,2.014-0.854,3.219-0.854c1.226,0,2.304,0.284,3.234,0.854c0.931,0.57,1.708,1.369,2.332,2.397
				c0.624,1.03,1.095,2.256,1.412,3.679C318.154,212.784,318.314,214.36,318.314,216.09z M316.146,216.156
				c0-1.38-0.109-2.666-0.328-3.859c-0.219-1.193-0.548-2.228-0.985-3.105c-0.439-0.875-0.991-1.564-1.658-2.068
				c-0.669-0.504-1.451-0.756-2.349-0.756c-0.92,0-1.708,0.252-2.365,0.756c-0.656,0.504-1.198,1.188-1.625,2.053
				c-0.428,0.865-0.745,1.889-0.953,3.07c-0.208,1.183-0.312,2.464-0.312,3.843c0,1.38,0.103,2.666,0.312,3.859
				c0.208,1.193,0.531,2.229,0.969,3.104c0.439,0.876,0.985,1.566,1.643,2.069c0.657,0.504,1.445,0.756,2.365,0.756
				c0.919,0,1.707-0.252,2.364-0.756c0.657-0.503,1.204-1.188,1.643-2.053c0.438-0.864,0.76-1.889,0.969-3.071
				C316.042,218.816,316.146,217.535,316.146,216.156z"/>
			<path fill="#003767" d="M338.217,227.454l-0.887-18.918l-5.584,19.05h-1.773l-5.616-19.05l-0.854,18.918h-1.904l1.116-22.662
				h2.464l5.747,19.509l5.715-19.509h2.496l1.117,22.662H338.217z"/>
			<path fill="#003767" d="M360.78,227.454l-0.887-18.918l-5.584,19.05h-1.773l-5.616-19.05l-0.854,18.918h-1.904l1.116-22.662
				h2.464l5.747,19.509l5.715-19.509h2.496l1.117,22.662H360.78z"/>
			<path fill="#003767" d="M367.447,227.454v-22.662h2.167v22.662H367.447z"/>
			<path fill="#003767" d="M380.616,206.73v20.725h-2.135V206.73h-5.32v-1.938h12.645l0.329,1.938H380.616z"/>
			<path fill="#003767" d="M395.133,206.73v20.725h-2.135V206.73h-5.32v-1.938h12.645l0.329,1.938H395.133z"/>
			<path fill="#003767" d="M403.771,227.454v-22.662h9.82v1.938h-7.652v7.883h6.043l0.329,1.938h-6.372v8.967h7.981v1.938H403.771z"
				/>
			<path fill="#003767" d="M417.631,227.454v-22.662h9.82v1.938h-7.652v7.883h6.043l0.329,1.938h-6.372v8.967h7.982v1.938H417.631z"
				/>
		</g>
	</g>
	<path fill="#ADAFB2" d="M321.831,97.814l-30.455-55.325l-14.463,26.788l7.55,18.062c0.988-0.322,2.07,0.135,2.48,1.11l4.568,10.934
		l6.894-2.878l5.046-2.301c0,0,7.217,17.262,9.814,23.48c2.598,6.218-2.267,22.659-7.73,28.227
		c-8.09-0.511-22.795-7.823-25.517-14.33c-2.718-6.506-9.816-23.485-9.816-23.485l5.184-1.969l6.893-2.884l-4.572-10.936
		c-0.409-0.976,0.028-2.071,0.949-2.547l-5.586-13.368l-11.589,21.461c-3.746,5.629-5.939,12.388-5.939,19.659
		c0,19.618,15.904,35.52,35.523,35.52c9.271,0,17.709-3.554,24.031-9.373c7.243-6.507,12.046-16.528,12.046-27.01
		C327.144,108.923,322.137,98.336,321.831,97.814z"/>
	<g>
		<g>
			<path fill="#003767" d="M65.902,192.682V170.02h9.82v1.938H68.07v7.883h6.043l0.329,1.938H68.07v8.967h7.982v1.938H65.902z"/>
			<path fill="#003767" d="M92.671,181.285c0,1.752-0.197,3.333-0.592,4.745c-0.394,1.413-0.985,2.611-1.773,3.597
				c-0.788,0.985-1.769,1.741-2.939,2.267c-1.172,0.525-2.534,0.788-4.089,0.788h-3.515V170.02h3.515
				c1.598,0,2.983,0.263,4.154,0.788c1.172,0.525,2.146,1.281,2.924,2.267c0.776,0.985,1.357,2.173,1.74,3.563
				C92.479,178.028,92.671,179.577,92.671,181.285z M90.47,181.351c0-3.066-0.618-5.403-1.855-7.013
				c-1.237-1.609-2.951-2.414-5.14-2.414h-1.544v18.853h1.544c2.188,0,3.902-0.788,5.14-2.364
				C89.852,186.835,90.47,184.481,90.47,181.351z"/>
			<path fill="#003767" d="M112.641,192.682l-0.887-18.918l-5.584,19.05h-1.773l-5.616-19.05l-0.854,18.918h-1.904l1.116-22.662
				h2.464l5.747,19.509l5.715-19.509h2.496l1.117,22.662H112.641z"/>
			<path fill="#003767" d="M132.903,181.317c0,1.73-0.164,3.312-0.492,4.746c-0.329,1.434-0.805,2.666-1.429,3.695
				c-0.624,1.029-1.402,1.834-2.332,2.414c-0.932,0.58-2.01,0.87-3.235,0.87c-1.227,0-2.305-0.285-3.235-0.854
				c-0.931-0.569-1.708-1.368-2.332-2.398c-0.624-1.028-1.095-2.255-1.412-3.678c-0.317-1.424-0.477-3-0.477-4.729
				c0-1.73,0.165-3.312,0.493-4.746c0.328-1.435,0.805-2.672,1.429-3.712c0.624-1.039,1.406-1.844,2.349-2.414
				c0.94-0.569,2.014-0.854,3.219-0.854c1.225,0,2.304,0.284,3.234,0.854c0.931,0.57,1.708,1.369,2.332,2.397
				c0.624,1.03,1.095,2.256,1.412,3.679C132.744,178.012,132.903,179.588,132.903,181.317z M130.735,181.384
				c0-1.38-0.109-2.666-0.328-3.859c-0.219-1.193-0.548-2.227-0.985-3.104c-0.439-0.875-0.991-1.564-1.658-2.068
				c-0.669-0.504-1.451-0.756-2.349-0.756c-0.92,0-1.708,0.252-2.365,0.756c-0.656,0.504-1.198,1.188-1.625,2.053
				c-0.428,0.865-0.745,1.889-0.953,3.07c-0.208,1.183-0.312,2.464-0.312,3.843c0,1.38,0.104,2.666,0.312,3.859
				c0.208,1.193,0.531,2.229,0.969,3.104c0.438,0.876,0.985,1.566,1.643,2.069c0.657,0.504,1.445,0.756,2.365,0.756
				c0.919,0,1.707-0.252,2.364-0.756c0.657-0.503,1.204-1.188,1.643-2.053c0.438-0.864,0.76-1.889,0.969-3.071
				C130.632,184.044,130.735,182.763,130.735,181.384z"/>
			<path fill="#003767" d="M147.749,192.682l-8.769-18.195v18.195h-2.004V170.02h2.069l8.375,17.703V170.02h2.004v22.662H147.749z"
				/>
			<path fill="#003767" d="M160.196,171.957v20.725h-2.135v-20.725h-5.32v-1.938h12.645l0.329,1.938H160.196z"/>
			<path fill="#003767" d="M182.235,181.317c0,1.73-0.164,3.312-0.492,4.746c-0.329,1.434-0.805,2.666-1.429,3.695
				c-0.624,1.029-1.402,1.834-2.332,2.414c-0.932,0.58-2.01,0.87-3.235,0.87c-1.227,0-2.305-0.285-3.235-0.854
				c-0.931-0.569-1.708-1.368-2.332-2.398c-0.624-1.028-1.095-2.255-1.412-3.678c-0.317-1.424-0.477-3-0.477-4.729
				c0-1.73,0.165-3.312,0.493-4.746c0.328-1.435,0.805-2.672,1.429-3.712c0.624-1.039,1.406-1.844,2.349-2.414
				c0.941-0.569,2.014-0.854,3.219-0.854c1.226,0,2.304,0.284,3.234,0.854c0.931,0.57,1.708,1.369,2.332,2.397
				c0.624,1.03,1.095,2.256,1.412,3.679C182.076,178.012,182.235,179.588,182.235,181.317z M180.067,181.384
				c0-1.38-0.109-2.666-0.328-3.859c-0.219-1.193-0.548-2.227-0.985-3.104c-0.439-0.875-0.991-1.564-1.658-2.068
				c-0.669-0.504-1.451-0.756-2.349-0.756c-0.92,0-1.708,0.252-2.365,0.756c-0.656,0.504-1.198,1.188-1.625,2.053
				c-0.428,0.865-0.745,1.889-0.953,3.07c-0.208,1.183-0.311,2.464-0.311,3.843c0,1.38,0.104,2.666,0.311,3.859
				c0.208,1.193,0.531,2.229,0.969,3.104c0.438,0.876,0.985,1.566,1.643,2.069c0.657,0.504,1.445,0.756,2.365,0.756
				c0.919,0,1.707-0.252,2.364-0.756c0.657-0.503,1.204-1.188,1.642-2.053c0.438-0.864,0.76-1.889,0.969-3.071
				C179.964,184.044,180.067,182.763,180.067,181.384z"/>
			<path fill="#003767" d="M197.081,192.682l-8.77-18.195v18.195h-2.004V170.02h2.069l8.375,17.703V170.02h2.004v22.662H197.081z"/>
			<path fill="#003767" d="M221.581,192.879l-2.003-7.555h-6.569l-1.904,7.357h-2.135l6.24-22.794h2.299l6.142,22.531
				L221.581,192.879z M216.294,172.745l-2.792,10.675h5.583L216.294,172.745z"/>
			<path fill="#003767" d="M231.336,182.5h-2.069v10.182h-2.168V170.02h4.139c2.145,0,3.837,0.547,5.074,1.642
				c1.237,1.096,1.856,2.606,1.856,4.533c0,1.599-0.41,2.906-1.231,3.925c-0.821,1.018-1.954,1.713-3.399,2.085l5.912,10.215
				l-2.135,0.492L231.336,182.5z M230.941,180.727c1.708,0,2.978-0.399,3.811-1.199c0.831-0.799,1.248-1.889,1.248-3.268
				c0-1.38-0.406-2.447-1.216-3.202c-0.811-0.756-2.025-1.134-3.645-1.134h-1.872v8.803H230.941z"/>
			<path fill="#003767" d="M242.667,192.682V170.02h9.82v1.938h-7.652v7.883h6.043l0.329,1.938h-6.372v8.967h7.981v1.938H242.667z"
				/>
			<path fill="#003767" d="M267.76,192.879l-2.003-7.555h-6.569l-1.904,7.357h-2.135l6.24-22.794h2.299l6.142,22.531L267.76,192.879
				z M262.473,172.745l-2.792,10.675h5.583L262.473,172.745z"/>
			<path fill="#003767" d="M291.045,176.457c0,2.145-0.668,3.793-2.003,4.942c-1.336,1.149-3.132,1.725-5.387,1.725h-1.511v9.558
				h-2.168V170.02h4.105c2.255,0,3.979,0.574,5.173,1.724C290.448,172.893,291.045,174.465,291.045,176.457z M288.878,176.522
				c0-1.445-0.395-2.572-1.183-3.383c-0.788-0.81-2.036-1.216-3.744-1.216h-1.807v9.295h1.643c1.773,0,3.064-0.421,3.875-1.264
				C288.472,179.112,288.878,177.968,288.878,176.522z"/>
			<path fill="#003767" d="M294.724,192.682V170.02h2.167v22.662H294.724z"/>
			<path fill="#003767" d="M313.083,176.457c0,2.145-0.668,3.793-2.003,4.942c-1.336,1.149-3.132,1.725-5.387,1.725h-1.511v9.558
				h-2.168V170.02h4.105c2.255,0,3.98,0.574,5.173,1.724C312.486,172.893,313.083,174.465,313.083,176.457z M310.916,176.522
				c0-1.445-0.394-2.572-1.183-3.383c-0.788-0.81-2.036-1.216-3.744-1.216h-1.807v9.295h1.643c1.773,0,3.065-0.421,3.875-1.264
				C310.51,179.112,310.916,177.968,310.916,176.522z"/>
			<path fill="#003767" d="M316.531,192.682V170.02h9.82v1.938h-7.652v7.883h6.043l0.329,1.938h-6.372v8.967h7.982v1.938H316.531z"
				/>
			<path fill="#003767" d="M330.392,192.682V170.02h2.168v20.725h6.864l0.296,1.938H330.392z"/>
			<path fill="#003767" d="M343.168,192.682V170.02h2.167v22.662H343.168z"/>
			<path fill="#003767" d="M361.232,192.682l-8.77-18.195v18.195h-2.004V170.02h2.069l8.375,17.703V170.02h2.004v22.662H361.232z"/>
			<path fill="#003767" d="M367.801,192.682V170.02h9.82v1.938h-7.652v7.883h6.043l0.329,1.938h-6.372v8.967h7.981v1.938H367.801z"
				/>
			<path fill="#003767" d="M401.663,192.879l-2.66-3.416c-1.38,2.343-3.307,3.515-5.78,3.515c-0.876,0-1.67-0.153-2.382-0.46
				c-0.711-0.307-1.319-0.728-1.822-1.265c-0.504-0.536-0.893-1.171-1.166-1.905c-0.275-0.733-0.411-1.538-0.411-2.414
				c0-1.576,0.411-2.95,1.232-4.121c0.821-1.172,1.866-2.107,3.137-2.809c-0.701-0.985-1.205-1.872-1.511-2.66
				c-0.308-0.788-0.46-1.631-0.46-2.529c0-0.7,0.109-1.357,0.328-1.971c0.219-0.612,0.53-1.149,0.935-1.609
				c0.405-0.46,0.914-0.826,1.527-1.101c0.613-0.273,1.314-0.41,2.103-0.41c0.897,0,1.647,0.104,2.25,0.312
				c0.602,0.208,1.188,0.52,1.757,0.936l-0.427,2.103c-0.57-0.481-1.134-0.849-1.691-1.101c-0.559-0.252-1.155-0.378-1.79-0.378
				c-0.898,0-1.604,0.291-2.119,0.87c-0.515,0.581-0.771,1.352-0.771,2.315c0,0.395,0.038,0.768,0.115,1.117
				c0.076,0.351,0.197,0.712,0.361,1.084s0.378,0.767,0.641,1.183s0.591,0.887,0.985,1.412l4.631,6.142
				c0.263-0.832,0.497-1.768,0.706-2.809c0.208-1.039,0.389-2.184,0.542-3.432l1.904,0.427c-0.241,1.511-0.504,2.895-0.788,4.155
				c-0.284,1.259-0.635,2.381-1.051,3.366l3.744,4.927L401.663,192.879z M392.894,181.449c-2.211,1.183-3.316,2.935-3.316,5.255
				c0,1.336,0.355,2.403,1.067,3.202c0.711,0.8,1.593,1.199,2.643,1.199c1.905,0,3.404-1.073,4.5-3.219L392.894,181.449z"/>
		</g>
	</g>
</g>
</svg>
